<svg viewBox="0 0 4267 1675" xmlns="http://www.w3.org/2000/svg" xml:space="preserve" style="fill-rule:evenodd;clip-rule:evenodd;stroke-linejoin:round;stroke-miterlimit:2"><path style="fill:none" d="M0 0h4266.67v1675H0z"/><clipPath id="a"><path d="M0 0h4266.67v1675H0z"/></clipPath><g clip-path="url(#a)"><path d="M1129.55 552.848V16.108c12.745 46.46 33.302 102.126 67.416 160.303 86.482 147.471 207.862 220.386 272.257 258.089 209.994 122.953 213.191 118.376 518.204 118.348H1129.55Z" style="fill:#fff;fill-rule:nonzero"/><path d="M1145.66 536.738h481.843c-44.638-17.829-93.208-45.472-166.421-88.337-60.939-35.677-187.747-109.923-278.012-263.837a673.917 673.917 0 0 1-37.41-73.92v426.094Zm780.257 32.248c-9.939 0-19.514-.006-28.735-.028h-767.629c-8.901 0-16.112-7.211-16.112-16.113V16.111c0-8.068 5.969-14.887 13.959-15.969 7.995-1.06 15.555 3.926 17.686 11.706 15.124 55.146 37.255 107.769 65.781 156.416 86.007 146.658 207.907 218.033 266.493 252.335 183.489 107.432 202.031 115.648 419.932 116.139h90.138-.006.006c8.895 0 16.107 7.212 16.107 16.107 0 8.902-7.212 16.113-16.107 16.113l-31.651.011c-10.298.011-20.271.017-29.862.017" style="fill-rule:nonzero"/><path d="M704.503 952.048V790.696H421.826v-.017H260.468v406.487h282.683v79.663H260.468v163.417h444.035v-406.481H421.826v-81.717h282.677Z" style="fill:#0000af;fill-rule:nonzero"/><path style="fill:#0000af" d="M784.006 548.677h161.352v161.358H784.006zM784.006 790.675h161.352v649.567H784.006z"/><path d="M1166.32 1645.88h-65.213V321.32h65.213v1324.56Z" style="fill:#dd0100;fill-rule:nonzero"/><path d="M1117.22 1629.77h32.992V337.43h-32.992v1292.34Zm65.212 32.225H1085V305.215h97.432v1356.78Z" style="fill-rule:nonzero"/><path style="fill:#fff" d="M16.113 1594.01h4234.45v65.218H16.113z"/><path d="M32.22 1642.78h4202.23v-32.993H32.22v32.993Zm4234.45 32.225H0v-97.438h4266.67v97.438Z" style="fill-rule:nonzero"/><path style="fill:#fac901" d="M1166.32 548.677h1276.72v1045.34H1166.32z"/><path d="M1182.43 1577.91h1244.5V564.79h-1244.5v1013.12Zm1276.72 32.22H1150.21V532.57h1308.94v1077.56Z" style="fill-rule:nonzero"/><path d="M1437.2 893.525c0-22.17-5.997-35.351-21.861-35.351-17.189 0-23.788 14.263-23.788 28.879 0 20.458 4.451 44.263 23.125 44.263 14.081 0 22.524-12.292 22.524-37.791m-2.402-70.569c-.392-2.684-1.624-19.431-18.382-19.431-23.485 0-24.175 36.449-24.777 56.19 4.064-7.77 12.546-15.881 27.543-15.881 23.296 0 35.052 18.653 35.052 48.178 0 27.973-10.093 53.313-39.707 53.313-33.037 0-39.84-31.038-39.84-74.456 0-49.045 9.669-81.358 42.513-81.358 28.078 0 33.142 23.539 33.534 33.445h-15.936ZM1472.77 827.692c.149-15.787 7.559-38.184 36.355-38.184 25.207 0 34.66 16.577 34.66 37.742 0 19.431-8.486 28.984-18.453 32.6v.304c13.517 4.506 23.053 15.279 23.053 38.603 0 23.247-9.155 46.416-40.331 46.416-28.139 0-37.62-19.354-38.31-39.387H1486c.547 11.96 6.289 25.296 22.446 25.296 18.476 0 22.744-16.207 22.744-31.789 0-24.6-11.115-31.132-28.006-31.132h-6.599v-14.269h6.505c14.765 0 23.815-5.985 23.815-25.759 0-14.135-4.445-24.45-18.73-24.45-17.399 0-19.32 17.024-19.779 24.009h-15.626ZM1563.81 821.784c0-10.828 0-18.277-.132-23.147h9.431c.132 1.767.315 4.925.315 12.12 2.893-8.2 9.436-13.064 17.962-13.153v10.823c-11.69.376-17.775 7.72-17.775 20.204v37.941h-9.801v-44.788ZM1606.67 831.99c0 19.597 4.45 27.068 12.783 27.068 10.541 0 13.357-9.006 13.357-27.427 0-19.812-2.756-25.434-12.601-25.434-8.067 0-13.539 7.107-13.539 25.793m35.753-60.795v77.934c0 6.582 0 13.424.138 17.444h-9.481c-.182-1.74-.364-6.218-.364-9.128-2.098 5.897-6.422 10.331-15.964 10.331-14.13 0-20.149-12.009-20.149-35.88 0-21.684 7.996-34.379 22.27-34.379 8.791 0 12.236 3.761 13.749 7.085v-33.407h9.801ZM1728.65 943.108l-30.757-156.124h18.156c10.387 55.566 20.403 110.939 22.402 132.385h.232c2.827-21.7 19.094-95.278 26.411-132.385h16.416c7.151 35.655 23.352 111.231 25.787 131.668h.458c3.302-27.405 18.029-96.124 24.445-131.668h17.195l-33.341 156.124h-18.216c-6.936-35.577-21.839-106.002-25.019-129.321h-.31c-3.561 25.185-18.558 94.207-25.935 129.321h-17.924ZM1878.89 863.575c0 44.523 8.984 66.952 28.326 66.952 19.962 0 28.261-21.778 28.261-66.648 0-45.455-8.973-64.152-28.41-64.152-19.061 0-28.177 21.331-28.177 63.848m74.251.1c0 53.235-12.672 81.744-46.466 81.744-32.159 0-45.455-27.537-45.455-81.463 0-53.207 15.61-79.204 46.239-79.204 32.319 0 45.682 26.013 45.682 78.923M1995 856.662h19.956c18.989 0 26.168-10.74 26.168-28.879 0-15.693-7.245-26.234-24.517-26.234H1995v55.113Zm0 14.567v71.877h-17.046V786.983h40.729c26.206 0 39.934 14.859 39.934 40.309 0 23.335-11.442 33.291-20.889 36.504 14.461 5.158 18.951 17.924 18.951 39.807v6.201c0 14.533.474 24.881 2.219 33.302h-17.018c-2.148-7.129-2.314-21.005-2.314-33.678v-5.3c0-22.242-4.527-32.899-25.61-32.899H1995ZM2083.45 786.985h17.128V928.05h55.754l-2.463 15.058h-70.419V786.985ZM2189.37 928.457h14.307c28.542 0 37.598-22.662 37.598-66.919 0-41.452-10.646-59.74-37.366-59.74h-14.539v126.659Zm-17.211-141.474h34.71c36.013 0 52.158 25.151 52.158 73.959 0 53.003-14.643 82.164-54.671 82.164h-32.197V786.983ZM1387.84 1148.99c1.232 16.04 8.945 28.862 26.069 28.862 16.372 0 24.599-8.956 24.599-26.935 0-16.406-6.654-25.163-27.89-35.4-24.451-11.685-35.241-22.502-35.241-45.119 0-21.436 13.728-38.597 39.194-38.597 30.149 0 38.288 21.606 38.747 39.922h-16.881c-.773-7.559-3.07-25.599-22.473-25.599-15.014 0-21.392 10.293-21.392 22.783 0 14.948 6.676 21.999 26.234 31.314 27.306 13.015 37.289 26.024 37.289 49.277 0 24.66-13.92 42.672-42.656 42.672-31.286 0-41.579-20.475-42.794-43.18h17.195ZM1499.46 1049.19h-34.798v-15.301h86.725v15.301h-34.798v140.822h-17.129V1049.19ZM1607.72 1125.25c-9.067-38.354-14.915-62.766-17.002-75.196h-.541c-2.131 13.589-8.515 41.673-16.173 75.196h33.716Zm-37.074 15.218-11.352 49.542h-17.123s37.702-156.124 37.708-156.124h22.225l38.829 156.124h-18.21l-11.497-49.542h-40.58ZM1665.64 1049.19h-34.798v-15.301h86.725v15.301h-34.798v140.822h-17.129V1049.19Z" style="fill-rule:nonzero"/><path d="M1734.2 1033.89h17.129v156.118H1734.2z"/><path d="M1789.82 1148.99c1.232 16.04 8.946 28.862 26.069 28.862 16.372 0 24.599-8.956 24.599-26.935 0-16.406-6.653-25.163-27.89-35.4-24.451-11.685-35.24-22.502-35.24-45.119 0-21.436 13.727-38.597 39.193-38.597 30.149 0 38.289 21.606 38.747 39.922h-16.88c-.773-7.559-3.07-25.599-22.474-25.599-15.014 0-21.391 10.293-21.391 22.783 0 14.948 6.675 21.999 26.234 31.314 27.305 13.015 37.288 26.024 37.288 49.277 0 24.66-13.92 42.672-42.656 42.672-31.286 0-41.579-20.475-42.793-43.18h17.194ZM1901.44 1049.19h-34.798v-15.301h86.725v15.301h-34.798v140.822h-17.129V1049.19Z" style="fill-rule:nonzero"/><path d="M1970 1033.89h17.129v156.118H1970z"/><path d="M2099.48 1146.79c-.69 9.072-4.638 45.527-42.468 45.527-41.551 0-44.699-43.931-44.699-81.485 0-45.4 11.988-79.183 46.604-79.183 37.609 0 39.724 35.251 40.116 44.793h-17.261c-.315-5.29-1.281-29.519-23.164-29.519-24.616 0-28.393 33.611-28.393 64.003 0 32.959 3.65 66.289 27.261 66.289 20.823 0 23.97-22.535 24.66-30.425h17.344ZM2131.79 1148.99c1.232 16.04 8.946 28.862 26.069 28.862 16.372 0 24.599-8.956 24.599-26.935 0-16.406-6.653-25.163-27.89-35.4-24.451-11.685-35.24-22.502-35.24-45.119 0-21.436 13.727-38.597 39.193-38.597 30.149 0 38.289 21.606 38.747 39.922h-16.88c-.773-7.559-3.07-25.599-22.474-25.599-15.014 0-21.391 10.293-21.391 22.783 0 14.948 6.675 21.999 26.234 31.314 27.305 13.015 37.288 26.024 37.288 49.277 0 24.66-13.92 42.672-42.656 42.672-31.286 0-41.579-20.475-42.793-43.18h17.194ZM1461.47 1393.69c-.691 9.072-4.639 45.532-42.468 45.532-41.552 0-44.699-43.931-44.699-81.49 0-45.395 11.987-79.177 46.604-79.177 37.609 0 39.723 35.245 40.115 44.787h-17.261c-.314-5.284-1.281-29.514-23.164-29.514-24.616 0-28.393 33.611-28.393 64.003 0 32.954 3.65 66.284 27.261 66.284 20.823 0 23.971-22.529 24.661-30.425h17.344ZM1496.78 1357.38c0 44.522 8.984 66.952 28.327 66.952 19.961 0 28.26-21.778 28.26-66.648 0-45.456-8.973-64.152-28.409-64.152-19.062 0-28.178 21.336-28.178 63.848m74.251.1c0 53.235-12.672 81.744-46.466 81.744-32.158 0-45.455-27.537-45.455-81.463 0-53.208 15.61-79.199 46.24-79.199 32.319 0 45.681 26.013 45.681 78.918M1595.84 1436.91v-156.117h21.105c43.158 108.067 49.215 122.771 51.203 129.546h.232c-1.082-20.977-1.38-44.478-1.38-69.839v-59.707h16.057v156.117h-20.171c-44.82-113.528-50.353-127.862-52.126-134.025h-.226c1.148 19.52 1.298 45.08 1.298 73.186v60.839h-15.992ZM1796.49 1436.91h-13.484c-.541-4.384-1-9.089-1.082-16.869-5.13 10.861-12.91 19.183-31.243 19.183-33.815 0-42.667-34.859-42.667-80.193 0-53.749 16.505-80.475 48.211-80.475 37.427 0 39.873 33.214 40.331 42.557h-17.112c-.458-5.55-1.695-27.587-23.688-27.587-22.06 0-29.84 25.969-29.84 65.212 0 39.039 5.837 65.594 27.813 65.594 21.049 0 25.864-17.604 25.864-50.321v-7.62h-27.112v-15.058h44.009v85.577ZM1841.33 1350.47h19.956c18.99 0 26.168-10.74 26.168-28.879 0-15.693-7.245-26.229-24.517-26.229h-21.607v55.108Zm0 14.566v71.878h-17.045v-156.118h40.728c26.207 0 39.934 14.854 39.934 40.309 0 23.33-11.441 33.285-20.889 36.499 14.462 5.157 18.951 17.924 18.951 39.807v6.201c0 14.533.475 24.881 2.22 33.302h-17.019c-2.148-7.129-2.313-21.005-2.313-33.678v-5.301c0-22.242-4.528-32.899-25.61-32.899h-18.957ZM1998.84 1361.98h-52.092v59.795h57.852l-2.342 15.136h-72.473v-156.118h71.651v15.295h-54.688v50.674h52.092v15.218ZM2034.58 1395.9c1.231 16.041 8.945 28.857 26.068 28.857 16.373 0 24.6-8.956 24.6-26.93 0-16.411-6.654-25.168-27.891-35.4-24.45-11.684-35.24-22.501-35.24-45.119 0-21.441 13.728-38.603 39.194-38.603 30.149 0 38.288 21.613 38.746 39.929h-16.88c-.773-7.565-3.07-25.605-22.473-25.605-15.014 0-21.392 10.298-21.392 22.788 0 14.942 6.676 21.994 26.234 31.309 27.306 13.02 37.289 26.03 37.289 49.276 0 24.661-13.921 42.673-42.656 42.673-31.286 0-41.579-20.475-42.794-43.175h17.195ZM2135.71 1395.9c1.231 16.041 8.945 28.857 26.068 28.857 16.372 0 24.6-8.956 24.6-26.93 0-16.411-6.654-25.168-27.891-35.4-24.451-11.684-35.24-22.501-35.24-45.119 0-21.441 13.727-38.603 39.194-38.603 30.149 0 38.288 21.613 38.746 39.929h-16.88c-.773-7.565-3.07-25.605-22.474-25.605-15.014 0-21.391 10.298-21.391 22.788 0 14.942 6.676 21.994 26.234 31.309 27.305 13.02 37.288 26.03 37.288 49.276 0 24.661-13.92 42.673-42.655 42.673-31.287 0-41.579-20.475-42.794-43.175h17.195Z" style="fill-rule:nonzero"/><path d="M1246.56 548.874V314.722a71.353 71.353 0 0 1 3.246-21.369c5.058-16.168 13.993-37.466 30.144-59.122 24.936-33.44 54.511-50.867 70.706-58.923v373.566H1246.56Z" style="fill:#fff;fill-rule:nonzero"/><path d="M1262.67 532.764h71.878V203.555c-15.964 11.148-30.122 24.803-41.684 40.309-12.22 16.377-21.53 34.654-27.681 54.301a55.285 55.285 0 0 0-2.513 16.56v218.039Zm104.097 32.219h-136.316V314.725a87.638 87.638 0 0 1 3.981-26.185c7.239-23.125 18.211-44.638 32.606-63.942 19.928-26.72 46.367-48.757 76.449-63.716l23.28-11.574v415.675Z" style="fill-rule:nonzero"/><path d="m1738.81 274.982-46.472 90.916c-1.06-2.082-46.466-90.916-46.466-90.916l-47.012 91.976v181.916h186.962V366.958l-47.012-91.976Z" style="fill:#fff;fill-rule:nonzero"/><path d="M1614.97 532.764h154.738V370.837l-30.9-60.458-46.466 90.916-46.472-90.916-30.9 60.458v161.927Zm186.957 32.219h-219.176V363.085l63.119-123.501 46.472 90.917 46.466-90.917 63.119 123.501v201.898Z" style="fill-rule:nonzero"/><path d="M1476.31 283.423h-7.869c-31.717 0-57.438 25.715-57.438 57.433v208.017h122.739V340.856c0-31.718-25.71-57.433-57.432-57.433" style="fill:#fff;fill-rule:nonzero"/><path d="M1427.12 532.764h90.519V340.859c0-22.788-18.537-41.325-41.326-41.325h-7.868c-22.789 0-41.325 18.537-41.325 41.325v191.905Zm122.738 32.219H1394.9V340.859c0-40.557 32.993-73.544 73.545-73.544h7.868c40.552 0 73.545 32.987 73.545 73.544v224.124Z" style="fill-rule:nonzero"/><path style="fill:#dd0100" d="M4097.61 823.452h152.954v613.88H4097.61z"/><path d="M2598.79 975.483V822.53h267.967v-.017h152.954v385.322h-267.967v75.521h267.967v154.914H2598.79v-385.327h267.967v-77.46H2598.79ZM3598 975.483V822.53h267.967v-.017h152.954v385.322h-267.967v75.521h267.967v154.914H3598v-385.327h267.967v-77.46H3598ZM3354.87 1024.56v211.645h-92.02v-211.639h58.58v-.006h33.44Zm11.497-202.053v.016H3098.4v615.741h420.92V822.507h-152.953Z" style="fill:#dd0100;fill-rule:nonzero"/><path d="m2637.86 744.433-40.575-192.031h45.638l12.275 74.644c4.009 24.61 7.554 51.408 9.481 73.583h1.237c1.927-22.888 6.554-48.686 10.381-73.031l11.734-75.196h44.433l-40.949 192.031h-53.655Z" style="fill-rule:nonzero"/><path d="M2745.62 552.404h43.059v192.031h-43.059z"/><path d="M2858.41 632.817h9.978c16.091 0 22.303-5.963 22.303-24.732 0-15.826-5.445-22.744-19.575-22.744h-12.706v47.476Zm-.099 33.037v78.581h-42.485V552.403h63.274c36.146 0 54.561 18.399 54.561 53.175 0 26.587-12.755 39.028-24.042 43.611 14.655 6.709 21.58 19.05 21.58 46.67v6.682c0 21.352.817 33.456 2.004 41.894h-41.761c-2.193-7.416-2.944-24.501-2.944-43.28v-6.604c0-22.717-4.461-28.697-20.916-28.697h-9.271ZM2980.34 588.502h-36.947v-36.101h116.659v36.101h-36.753v155.93h-42.959v-155.93ZM3116.2 552.403v134.456c0 12.507 2.551 26.609 17.77 26.609 14.676 0 17.393-12.159 17.393-26.421V552.403h43.247v133.213c0 39.106-18.675 62.43-61.585 62.43-43.429 0-59.878-23.12-59.878-62.816V552.403h43.053ZM3281.85 666.217c-4.252-28.017-8.354-59.271-10.723-76.924h-1.419c-1.828 18.415-6.406 48.896-10.84 76.924h22.982Zm-28.481 37.112-6.378 41.104h-43.053l36.962-192.031h60.503l37.438 192.031h-44.721l-6.571-41.104h-34.18ZM3351.36 552.403h43.059v156.19h59.442l-4.009 35.842h-98.492V552.403Z" style="fill-rule:nonzero"/><path style="fill:#0000af" d="M16.113 548.677h161.352v161.358H16.113zM16.113 790.675h161.352v649.567H16.113z"/></g></svg>